<svg xmlns="http://www.w3.org/2000/svg" width="36.972" height="55.279" viewBox="0 0 36.972 55.279"><g transform="translate(-185.676 -173.27)"><path d="M198.808,228.363v.01l.012,0Zm-8.142-14.287h-.01l0,.009Zm13.179-23.822.01-.008-.012,0Zm.069.568.012,0,0-.012Zm-.282-8.8c0-.01,0-.014.006-.022s-.01,0-.01,0a.044.044,0,0,0,0,.018m2.5-1.426.009,0v-.01Zm-3.794,9.6a.034.034,0,0,0,0-.012.074.074,0,0,0-.021,0s0,.008,0,.01.009,0,.013,0m.506-9.456,0-.012-.006.01Zm.491,13.765h.014v-.018h-.014a.057.057,0,0,0,0,.018m2.867-13.686.012,0a.083.083,0,0,0-.006-.028s-.011.006-.011.006a.082.082,0,0,0,0,.024m-3.586,8.553.011.006,0-.014Zm3.876-4.849s0,.01,0,.012.008,0,.012,0v-.014h-.01m-3.713,1.984-.01-.014v.027Zm.627-8.1.008.006V178.4Zm.366,13.132a.091.091,0,0,0,.008-.014.043.043,0,0,1-.021-.008c0,.006,0,.012,0,.016s.008.006.012.006m0-2.591.006-.008-.01,0Zm-.127-11.759s-.006-.008-.01-.012l-.01.01a.067.067,0,0,0,.014.014Zm-.01,14.942-.006-.006v.01ZM215.3,223.022a.041.041,0,0,0-.008-.013h-.014a.123.123,0,0,1,.008.019l.014-.006m-6.785-9.6s0-.006,0-.01a.2.2,0,0,0,0,.021.044.044,0,0,0,.008-.011m.057.578a.067.067,0,0,0,.012-.021h-.012V214m.012.141,0-.014-.006.01ZM194.959,215.5l0,.008v-.012Zm4.027,12.87a.1.1,0,0,1-.023,0s.006.008.01.008.008,0,.012-.006m20.2-6.855c0-.017-.006-.021-.021-.01a.147.147,0,0,0,.006.016l.015-.006m.611-5.478-.006.01h.01Zm.468.617,0-.014-.006.01Zm-22.388,11.579c-.008-.006-.014-.008-.018-.012s0,.012,0,.012.008,0,.018,0m-1.551-9.6s0-.01,0-.016a.046.046,0,0,1-.023.008c0,.006.006.012.01.012s.01,0,.014,0m.062.094.008.006v-.014Zm7.427,8.455.006-.008h-.012Zm8.823-2.582-.012-.006,0,.01Zm.143-.076-.013,0,.008,0Zm-4.774-19.162,0-.01-.006.008Zm-2.149,2.08-.014-.006a.042.042,0,0,0,.008.018.068.068,0,0,1,.006-.012m-4.94-2.192a.033.033,0,0,1-.008-.012.091.091,0,0,0,0,.023s.006-.006.01-.01m6.949-1.512-.012,0,.006.01Zm-4.236-26.9c.006-.021.006-.024.009-.031s-.006,0-.009,0Zm15.69,44.389a.062.062,0,0,0,.006-.014s-.01-.006-.012,0-.006.009-.008.015l.014,0m-15.847-35.569-.015.018a.018.018,0,0,0,.01.008.083.083,0,0,0,.016-.021s-.008,0-.012-.006m-.27,9.92c0,.01,0,.018,0,.028s.006-.008.006-.014a.034.034,0,0,0,0-.014M198.1,220.666s0,.014,0,.017.022.006.022-.01a.034.034,0,0,0-.006-.016.044.044,0,0,0-.015.01m10.848,5.37s.01,0,.015,0,.018-.012,0-.018a.023.023,0,0,0-.017,0s0,.008,0,.013m3.931-7.117-.012-.01c0,.008-.006.016-.01.022s.01,0,.014,0,.006-.006.008-.012m-.588.56a.085.085,0,0,0-.017.022s.009.014.01.012a.1.1,0,0,0,.026-.012.174.174,0,0,0-.02-.022m-.564.576a.209.209,0,0,0-.021.02.106.106,0,0,1,.012.011.186.186,0,0,0,.021-.022l-.012-.009m-5.376-37.024a.16.16,0,0,0,.01-.024.022.022,0,0,0-.01,0ZM188.222,222.3a.045.045,0,0,0,0-.014.094.094,0,0,1-.02.009s0,.01.008.012a.02.02,0,0,0,.014-.006m17.756-14.971h.016s-.008-.008-.015-.01a.042.042,0,0,0-.014,0l.012.006m-2.693-31.985.02-.016a.049.049,0,0,0-.016,0l-.014,0a.1.1,0,0,1,.01.018m-1.8,17.47c-.006.006-.019.012-.019.018s.008.019.012.027a.066.066,0,0,0,.016-.018.071.071,0,0,0-.01-.027m2.141.423c.006,0,.015,0,.015,0a.143.143,0,0,0,0-.031s-.014,0-.014,0,0,.02,0,.031m2.879-3.966a.018.018,0,0,0-.006.01.038.038,0,0,0,0,.014s0-.008,0-.01v-.015m-14.767,23.865a.131.131,0,0,0,0-.027.027.027,0,0,0-.019-.008s-.006.01,0,.014a.08.08,0,0,0,.018.02m16.626,2.791c-.006,0-.012.009-.012.012a.309.309,0,0,0,.009.031s.012-.008.012-.012-.006-.02-.009-.031M187.2,222.356s0,.01,0,.016l.021-.01s0-.011-.008-.013a.046.046,0,0,0-.014.006m18.816,4.472.018,0a.106.106,0,0,0-.016-.016s-.009,0-.015.008Zm-14.346-10.78a.064.064,0,0,0-.022-.009s-.01.009-.008.01a.118.118,0,0,0,.016.02.083.083,0,0,0,.014-.022m3.657.474,0-.014s-.006.008-.006.012a.033.033,0,0,0,0,.014l.006-.012m6.234-11.906-.006.006,0,.012ZM216.9,223.5c-.008,0-.021-.015-.028-.012s-.01.02-.015.03.022.012.029.01.01-.019.014-.028m-13.716-48.826a.094.094,0,0,0-.01.028.125.125,0,0,0,.027,0s.006-.013,0-.014a.1.1,0,0,0-.02-.014m3.179,7.742c0-.008,0-.013,0-.019a.092.092,0,0,0-.008.031.044.044,0,0,0,0,.016c0-.01,0-.021.006-.028m-17.657,41.854a.346.346,0,0,1-.043-.033c0,.01-.01.022-.008.028a.046.046,0,0,0,.024.02c.006,0,.016-.01.027-.016m14.656-42.925-.012-.03c-.006.01-.016.02-.014.028a.124.124,0,0,0,.019.033.132.132,0,0,0,.008-.031M190.777,225.7l-.037-.028c-.006.006-.015.018-.012.027a.06.06,0,0,0,.022.021c.007,0,.015-.01.027-.019M203.341,180.8c.008-.014.014-.022.014-.031a.184.184,0,0,0,0-.035c-.006,0-.022,0-.022.009a.344.344,0,0,0,.008.057m-.27-1.285c0-.008,0-.018-.006-.028a.132.132,0,0,0-.014.033c0,.008.008.018.01.027Zm.278,1.071a.1.1,0,0,0,.006-.035c0-.018-.008-.022-.014-.01a.09.09,0,0,0,0,.035s.006.006.01.01m5.309,33.793a.1.1,0,0,1-.014-.012.047.047,0,0,0,0,.016.15.15,0,0,1,.01.027c0-.01,0-.018.006-.031m-7.019-22.108c0-.01-.006-.021-.01-.031a.111.111,0,0,0-.014.027.075.075,0,0,0,.01.031.3.3,0,0,0,.015-.027m-6.173,24.664c0,.009-.012.018-.012.027s.006.018.01.029c0-.008.012-.018.012-.027a.081.081,0,0,0-.01-.029m5.582-11.064a.192.192,0,0,0,0,.037h.008v-.034a.034.034,0,0,0-.01,0m1.8-18.328-.012-.025a.2.2,0,0,1,0,.031s0,.01,0,.014a.192.192,0,0,1,.012-.02m3.733-.255a.168.168,0,0,1,.035.01c0-.01,0-.019,0-.027l-.014,0a.14.14,0,0,0-.025.021m-10.974,29.994a.107.107,0,0,0,0-.033c0-.008-.011-.012-.015-.018a.052.052,0,0,0-.006.03c0,.006.008.012.016.02m11.606-15.136a.154.154,0,0,0,0,.033c0,.016.006.021.012,0a.08.08,0,0,0,0-.031s0,0-.006-.006m-5.016-.527a.207.207,0,0,0,0-.035s-.006-.008-.012-.01a.048.048,0,0,0,0,.016c0,.008.006.016.008.029m18.285,16.023a.091.091,0,0,1-.018-.014c0,.006,0,.012,0,.016a.142.142,0,0,0,.01.029c0-.011.006-.021.01-.031m-.071.143-.014-.012a.023.023,0,0,0,0,.017l.008.027a.146.146,0,0,0,.009-.031M203.618,185l-.031.01c0,.01,0,.025.012.031a.024.024,0,0,0,.037-.019c0-.006-.012-.014-.018-.022m2.15,13.864a.17.17,0,0,0,0,.033c0,.006.012.012.02.017a.175.175,0,0,0,0-.031c0-.006-.012-.012-.021-.018m.527-7.421-.02,0c0,.022,0,.043.006.063,0-.022.008-.045.014-.068m2.293,23.61c0-.006-.01-.018-.016-.031a.081.081,0,0,0-.006.035.109.109,0,0,0,.018.036c0-.01,0-.022,0-.041m-13.559.748a.378.378,0,0,0,.012-.053c0-.016.019-.045-.02-.047,0,.024.006.051.008.1m-2.337,10.933c-.012-.008-.019-.019-.024-.021s-.045-.008-.051,0c-.025.027.008.023.018.023a.224.224,0,0,0,.057,0m8.95-34.964c-.019.031-.029.039-.027.047a.2.2,0,0,0,.016.055c0-.027,0-.053.01-.1m-6.449,24.358c0-.012-.008-.031-.012-.047-.01.012-.029.021-.031.035s0,.039.016.043.02-.012.027-.031m2.109,3.757c-.015-.018-.021-.047-.051-.041-.006,0-.012.025-.008.033a.043.043,0,0,0,.053.035s0-.018.007-.027m8.741-39.582c0,.022.01.043.03.033s.01-.031.01-.047,0-.041-.025-.029-.012.033-.016.043m-3.627,20.03c-.012.068-.031.1,0,.127Zm.938-24.7a.254.254,0,0,1-.033.006c.008.037.014.074.033.153ZM189.71,224.671c0-.012-.006-.029-.01-.031a.094.094,0,0,0-.047,0c-.014.012-.006.03.012.035a.151.151,0,0,0,.045-.008m16.71-40.835h.014c0-.043,0-.088-.008-.131,0,.043,0,.086-.006.131m-3.069-1.134c0,.047-.043.094,0,.145Zm.264-4.048c.014-.018.03-.028.033-.04a.058.058,0,0,0-.015-.047c-.028-.012-.039.014-.039.037a.15.15,0,0,0,.021.051m-.7,1.741h.01v-.131h-.01Zm5.47,32.614c-.006-.031-.012-.061-.051-.057s-.031.031-.031.055a.05.05,0,0,0,.045.045c.029,0,.039-.016.037-.043M203.825,176.4a.048.048,0,0,0-.047-.045.061.061,0,0,0-.033.031.038.038,0,0,0,.033.049c.027,0,.045-.006.047-.035m-.987,11.751a.447.447,0,0,0,0-.245ZM198.5,221.007c.022.053.043.111.125.111-.006-.086-.078-.086-.125-.111m4.837-36.461h.006v-.28h-.006Zm-.021,4.546c-.027.069-.043.118,0,.164.008.006.041.006.045,0,.045-.063,0-.1-.047-.159m-1.6,4.581a.736.736,0,0,1,0-.135c0-.018.029-.035.039-.055.02-.037.008-.082-.035-.068-.065.022-.037.09-.034.141s-.012.082.028.117m7.09,5.835c0-.034-.014-.061-.049-.057a.079.079,0,0,0-.078.081c0,.037.027.051.057.053.055,0,.067-.034.069-.078M203.9,177.572c.031-.082.082-.151.027-.229-.022-.031-.053-.008-.074.016-.057.074-.061.139.047.213m1.71,3.2c0,.129-.033.212.014.3,0,.008.043.008.043,0a.309.309,0,0,0-.057-.3m-1.58-3.952c0-.084-.008-.184-.012-.284,0-.045-.022-.08-.073-.082s-.07.041-.07.078c0,.184,0,.368.006.549,0,.037.018.072.061.072s.061-.035.065-.07c.01-.082.014-.166.022-.263m-.586,16.442a.663.663,0,0,0,.188-.732,1.672,1.672,0,0,1,.124-1.13.779.779,0,0,0,.1-.546,1.45,1.45,0,0,1-.053-.415,1.558,1.558,0,0,0-.039-.241,1.322,1.322,0,0,1-.057-.533c-.059.012-.108.051-.173-.006-.049-.045-.16-.018-.137.065.073.26-.059.53.063.779a.832.832,0,0,1,.074.364,3.4,3.4,0,0,1-.135,1.136,1.384,1.384,0,0,0-.088.448c0,.282.213.517.137.811m2.732-9.236c-.065.333.153.617.149.938a.071.071,0,0,0,.084.073c.045-.006.043-.053.045-.086s0-.084,0-.124c.031-.245-.1-.47-.08-.722a1.936,1.936,0,0,0-.018-.729,2.915,2.915,0,0,1-.094-.738c-.008-.339.012-.682-.022-1.026-.03-.29-.084-.574-.139-.858a3.233,3.233,0,0,1-.166-.707,1.074,1.074,0,0,0-.184-.543.205.205,0,0,0-.3-.072c-.106.051-.082.168-.027.264a1.512,1.512,0,0,1,.209.492,1.694,1.694,0,0,0,.213.65c.077.12-.053.3.108.395a9.051,9.051,0,0,0,.074.995,5.883,5.883,0,0,0,.018.8c.053.331.1.662.131.993m-1.089,23.716.01.006s-.008,0-.014,0c.245-.133.564-.137.721-.423.022-.041.073-.031.11-.045a1.587,1.587,0,0,0,.4-.174c.155-.138.388-.167.5-.359.012-.018.041-.025.061-.039a1.875,1.875,0,0,0,.809-.781c.039-.094.172-.19.184-.274a3.118,3.118,0,0,0,.106-1.22,4.349,4.349,0,0,0-.354-1.024c-.145-.274-.245-.566-.366-.85a10.757,10.757,0,0,1-.408-1.156,1.283,1.283,0,0,0-.147-.393,5.773,5.773,0,0,0-.284-.556c-.128-.157-.108-.4-.3-.523-.015-.008-.015-.043-.018-.067a2.177,2.177,0,0,0-.188-.433,4.958,4.958,0,0,1-.251-.674.367.367,0,0,0-.206-.265c-.084-.029-.155.092-.2.167-.139.256-.272.509-.395.772a1.49,1.49,0,0,0-.2.662,6.014,6.014,0,0,1-.155,1.02c-.057.339-.2.676-.235,1.013a5.231,5.231,0,0,1-.3.954c-.069.241-.225.464-.278.7a4.944,4.944,0,0,1-.392,1,4.5,4.5,0,0,0-.417,1.279,5.259,5.259,0,0,0-.047,1.4c.027.229.117.386.26.4.282.03.561-.006.848.03a5.88,5.88,0,0,0,.627-.1c.175,0,.339-.106.521-.049m1.4-18.959h0a.616.616,0,0,1-.021-.121c.018-.333.049-.664.053-.995.008-.674,0-1.351,0-2.023a.291.291,0,0,0-.115-.264,5.5,5.5,0,0,0-.216,1.5c-.059.619-.021,1.244-.074,1.869-.034.394.047.8.029,1.189a9.639,9.639,0,0,1-.176,1.522c-.094.451-.139.913-.2,1.373-.015.11.141.321.243.312.143-.012.071-.137.094-.212.012-.033.033-.064.043-.1.047-.174.157-.337.031-.527-.027-.041-.008-.118,0-.174a2.553,2.553,0,0,0,.057-.725c-.008-.149-.061-.29.116-.378.019-.008.023-.065.023-.1-.019-.615.059-1.226.086-1.839,0-.106-.031-.215.031-.315m-3.049-9.458c.117.024.037-.059.047-.092.029-.079-.023-.218.174-.178a.453.453,0,0,1-.1-.227c-.006-.029-.006-.063-.047-.068s-.049.027-.065.053c-.155.225-.047.468-.094.738a.22.22,0,0,0,.083-.229Zm-.071.68s.006.01.012.012l.012,0-.027-.008a.538.538,0,0,0-.045-.374.307.307,0,0,0-.086.209c0,.09-.006.186.133.163m16.268,35.872c0-.023,0-.053-.031-.051s-.027.035-.039.051c-.059-.035-.155-.088-.112-.148.078-.11,0-.106-.061-.147-.106-.068-.282-.08-.265-.27,0-.035-.043-.021-.053-.031-.1-.129-.28-.147-.39-.266-.043-.045-.082-.08.022-.067v0c.016.027.043.061.057.01s-.039-.071-.084-.067a.458.458,0,0,1-.354-.184,6.849,6.849,0,0,0-.619-.55l0,0,.033,0,0,0c.035-.075-.039-.08-.073-.11-.089-.08-.274-.049-.3-.176-.028-.164-.134-.117-.225-.139-.051-.012-.112.006-.147-.047-.01-.016-.065-.03-.025-.061.1-.078.013-.108-.037-.1-.08.014-.114-.043-.172-.062-.123-.041-.172-.212-.286-.2-.182.02-.245-.106-.343-.2a.152.152,0,0,0-.025-.025.585.585,0,0,0-.353-.01c-.092.029-.039.139-.051.209a.184.184,0,0,1-.068.139.463.463,0,0,0-.143.221c-.07.2-.137.4-.207.6a2.2,2.2,0,0,0-.157.715.3.3,0,0,1-.028.155,3.2,3.2,0,0,0-.315.745,5.994,5.994,0,0,0-.415.969,2,2,0,0,1-.256.556c-.076.133-.1.292-.182.412a2.078,2.078,0,0,0-.312.5,1.158,1.158,0,0,1-.276.394c-.139.143-.2.339-.36.462-.137.106-.143.321-.343.4a.379.379,0,0,0-.263.282.432.432,0,0,1-.174.239c-.212.137-.441.249-.527.514a.078.078,0,0,1-.08.059c-.076,0-.117.049-.168.088a7.54,7.54,0,0,0-.648.513,6.566,6.566,0,0,1-.6.41,2.222,2.222,0,0,1-.924.517.325.325,0,0,0-.2.135.139.139,0,0,1-.1.065,6.868,6.868,0,0,0-1.07.369,7.962,7.962,0,0,1-1.273.346,1.248,1.248,0,0,1-.31.074c-.282-.014-.552.126-.838.073a.084.084,0,0,0-.051.008,2.377,2.377,0,0,1-.946.033c-.173,0-.345-.086-.513-.02a.308.308,0,0,1-.265-.025.372.372,0,0,0-.319-.065,1.131,1.131,0,0,1-.462-.106.215.215,0,0,0-.092-.028.926.926,0,0,1-.679-.21c-.047-.039-.133-.178-.2.012-.016.047-.067-.014-.1-.035a.816.816,0,0,0-.247-.131.617.617,0,0,1-.3-.064c-.251-.17-.6-.129-.832-.363a.085.085,0,0,0-.084,0c-.043.057-.084,0-.118.005-.18.027-.186-.267-.382-.2-.006,0-.031-.03-.028-.041.049-.139-.047-.118-.131-.139-.109-.022-.282,0-.3-.112-.024-.133-.118-.135-.186-.193a.158.158,0,0,0-.045-.022.087.087,0,0,1,0,.033c-.031.074-.065.088-.094.035-.074-.135-.278-.141-.3-.318l0,0c-.01-.08-.071-.059-.123-.067a.363.363,0,0,1-.31-.231c-.023-.07-.056-.1-.088-.084-.1.041-.147-.027-.186-.086-.065-.1-.221-.153-.184-.315-.162-.028-.184-.208-.307-.282a.055.055,0,0,0-.016,0c-.176.028-.223-.128-.308-.22s-.244-.135-.156-.306l-.047-.023,0,0c-.07.049-.094-.025-.127-.053a1.687,1.687,0,0,1-.3-.417c.037.007.065.049.118.027-.041-.034-.082-.063-.121-.094.01-.1-.153-.047-.116-.1.088-.141-.029-.1-.086-.128a.667.667,0,0,1-.261-.484c-.006-.07-.021-.233-.131-.221s-.121-.053-.123-.108a.175.175,0,0,0-.064-.131,1.781,1.781,0,0,1-.157-.237c.088,0,.084.079.148.1-.033-.109-.09-.288-.117-.272-.121.074-.09-.036-.111-.071a1.516,1.516,0,0,1-.145-.323,2.383,2.383,0,0,0-.206-.513c-.082-.133.065-.366-.184-.423-.008,0-.012-.033-.012-.049a1.131,1.131,0,0,0-.121-.427.4.4,0,0,1,0-.36c.014-.022.037-.067-.006-.069-.215-.006,0-.186-.1-.233.078-.133,0-.227-.078-.321-.006-.006-.012-.016-.018-.022s.015.014.023.02l-.031.043c-.184-.2-.392-.088-.6-.063-.139.016-.2.145-.3.163a.631.631,0,0,0-.331.158,6.314,6.314,0,0,1-.556.4c-.262.188-.607.26-.778.57-.009.017-.041.023-.066.025a.351.351,0,0,0-.194.114.88.88,0,0,1-.313.223.3.3,0,0,0-.181.16.571.571,0,0,1-.145.173,3.9,3.9,0,0,0-.6.544c-.137.176-.376.256-.453.484-.26.027-.251.382-.509.415-.049.2-.268.233-.364.386-.069.114-.22.129-.288.247a1.561,1.561,0,0,1-.386.407,6.312,6.312,0,0,0-.49.482,1.313,1.313,0,0,0-.29.317,2.862,2.862,0,0,0-.166.586,1.273,1.273,0,0,0,.065.689,1.7,1.7,0,0,0,.35.6,4.966,4.966,0,0,0,.715.754,1.873,1.873,0,0,0,.425.333c.1.045.194.184.3.272a3.288,3.288,0,0,1,.339.245c.135.147.263.308.491.31.043,0,.047.047.067.074a1.6,1.6,0,0,0,.441.335c.084.057.2.076.3.131.353.209.7.423,1.06.621a1.39,1.39,0,0,0,.323.179,8.84,8.84,0,0,1,.885.352c.072.027.137.067.207.094a6,6,0,0,1,.84.317,1.321,1.321,0,0,0,.478.2,2.44,2.44,0,0,1,.357.09,5.421,5.421,0,0,0,.619.162,2.2,2.2,0,0,1,.432.131,1.056,1.056,0,0,0,.3.078,2.281,2.281,0,0,1,.623.147,5.655,5.655,0,0,0,1.173.233c.135.019.278-.016.374.121a.11.11,0,0,0,.135.012.239.239,0,0,1,.186,0,3.615,3.615,0,0,0,1.013.156,4.661,4.661,0,0,0,1.379.016.114.114,0,0,1,.1.018.224.224,0,0,0,.2.033,4.969,4.969,0,0,1,.883-.059,11.2,11.2,0,0,0,1.751-.139c.219-.045.464.05.652-.143.008-.01.034-.005.051,0a2.14,2.14,0,0,0,.543-.09,5.691,5.691,0,0,1,.852-.176c.2-.016.386-.092.58-.12.124-.019.237-.112.378-.063.029.01.055-.022.063-.051.019-.068.068-.076.125-.078a9.189,9.189,0,0,0,1.371-.376,3.526,3.526,0,0,0,.615-.208c.184-.072.382-.064.57-.133.1-.041.173-.164.27-.147.22.027.327-.174.513-.216.235-.056.431-.243.695-.223a.166.166,0,0,0,.135-.08.506.506,0,0,1,.444-.2c.028,0,.07,0,.041-.047s-.022-.067.025-.08c.247-.078.421-.311.7-.331l0,0c.051-.119.213-.025.222-.065.043-.18.229-.168.329-.27a3.825,3.825,0,0,1,.364-.241c.123-.094.3-.124.435-.233.174-.147.415-.2.564-.38a.5.5,0,0,1,.335-.194c.037,0,.124,0,.129-.067a.24.24,0,0,1,.217-.2.544.544,0,0,0,.3-.143c.139-.094.2-.249.351-.343a1.164,1.164,0,0,0,.392-.274c.055-.077.086-.175.217-.145.037.009.047-.035.021-.064s-.031-.067.014-.076c.108-.022.143-.129.215-.179.1-.068.13-.2.237-.239a.717.717,0,0,0,.337-.262,1.989,1.989,0,0,1,.206-.271c.154-.115.25-.288.427-.368a.179.179,0,0,0,.109-.151c.01-.073.03-.162.1-.027.031.059.076,0,.074-.012-.018-.1.1-.145.106-.21.018-.225.274-.243.337-.425.03-.086.117-.151.165-.231s.057-.162.174-.166c.053,0,.076-.057.1-.108.08-.17.09-.376.258-.5a.887.887,0,0,0,.306-.354,1.668,1.668,0,0,0,.239-.745c0-.051-.055-.137.055-.154-.015-.082.049-.184-.061-.239a.414.414,0,0,1-.016-.047.188.188,0,0,1-.019.012l.037.03c-.041.1-.092.035-.109,0a1.517,1.517,0,0,1-.178-.429v0c.065.008.076-.023.033-.065a1.765,1.765,0,0,0-.179-.151l0,0c-.024-.059-.063-.128-.124-.132-.151-.012-.167-.123-.2-.227.027-.045,0-.061-.037-.071m-29.165,1.291.037-.027a.094.094,0,0,1-.014-.016.435.435,0,0,0-.021.043c-.01.012-.016.012-.018,0l.016,0m16.908.278c.064-.019.029-.043,0-.068a.092.092,0,0,1,.065-.075c.137-.043.176-.215.323-.237.012-.3.378-.419.352-.734,0-.006.028-.016.045-.027l.012.006a.035.035,0,0,0-.014,0c.094-.127.051-.288.111-.423a3.523,3.523,0,0,0,.2-.613,4.152,4.152,0,0,1,.1-.486.913.913,0,0,0-.018-.52,1.276,1.276,0,0,1-.037-.578.062.062,0,0,1,.012.011h.01a.076.076,0,0,0-.024-.008.209.209,0,0,0-.022-.119c-.045-.112-.188-.2-.059-.355.035-.041-.018-.1-.09-.082s-.111-.01-.1-.067a.374.374,0,0,0-.163-.358c-.149-.135-.172-.376-.392-.437a.045.045,0,0,1-.019-.031c.022-.192-.17-.247-.243-.376-.092-.162-.321-.118-.417-.276,0,0-.01,0-.016,0-.11.031-.218-.051-.288-.051-.165,0-.29-.1-.445-.1a7.734,7.734,0,0,0-1.191.066c-.172.027-.331.086-.5.125a2.835,2.835,0,0,0-.764.429,3.552,3.552,0,0,0-1.048,1.066c-.153.219-.176.52-.423.674-.024.014-.028.062-.045.092a1.709,1.709,0,0,0-.125.711,6.269,6.269,0,0,0-.1,1.33,3.636,3.636,0,0,0,.49,1.71,4.673,4.673,0,0,0,.56.668.488.488,0,0,0,.241.173,6.736,6.736,0,0,0,.791.162,2.856,2.856,0,0,0,.972-.047,2.709,2.709,0,0,1,.439-.094c.115-.014.327-.049.335-.088.053-.225.364,0,.384-.237a.438.438,0,0,0,.315-.137c.065-.058.178-.106.247-.176.1-.1.247-.131.341-.247.064-.08.084-.2.194-.245,0,.025,0,.049,0,.074,0,0,0,0,0,0m-16.054,8.608.012.01a.061.061,0,0,0-.017-.008s0,0,0,0M203.44,189.07c.022,0,.047-.006.072-.006.233,0,.276-.057.19-.286-.045-.12-.027-.288-.218-.321-.035-.006-.058-.1-.078-.151-.014-.037-.033-.082.008-.117s.076.009.111.027.047.033.073.051c.062-.033.053-.092.047-.141-.061-.6-.041-1.212-.084-1.814a.772.772,0,0,0-.176-.578c-.071-.065-.11-.19.045-.292a.354.354,0,0,0-.066-.56l0,0a1.044,1.044,0,0,1-.1-.707,12.251,12.251,0,0,0,.023-1.428,1.783,1.783,0,0,1,.014-.393c.027-.106,0-.272.2-.282.049,0,.082-.088.072-.149-.012-.084,0-.2-.106-.225-.219-.051-.191-.219-.186-.372a2.276,2.276,0,0,0-.032-.762c-.007-.029.006-.065-.033-.074s-.057.033-.077.061c-.088.118-.031.272-.106.392-.024.039-.018.092-.065.123s-.094.129-.172.094c-.1-.039,0-.11,0-.167a2.567,2.567,0,0,1,.07-.917c.059-.174.016-.37.092-.517a5.2,5.2,0,0,0,.19-.66,6.094,6.094,0,0,1,.335-.83v.127c.039-.057.012-.09,0-.124.035-.313.086-.625.1-.938a3.211,3.211,0,0,0-.167-.96,4.212,4.212,0,0,1-.155-.46,1.861,1.861,0,0,0-.082-.421,2.9,2.9,0,0,1-.087-.521.2.2,0,0,1,.116-.235.2.2,0,0,1,.255.051c.039.041.1.114.164.037a.122.122,0,0,0-.035-.186.24.24,0,0,1-.072-.1c-.088-.2-.145-.223-.341-.125a.561.561,0,0,1,.354-.194c.039-.012.084,0,.1-.051a.668.668,0,0,1,.5-.4,1.905,1.905,0,0,0,.474-.237.329.329,0,0,1,.31-.028,1.79,1.79,0,0,1,.828.48.494.494,0,0,0,.433.16.742.742,0,0,1,.664.351.27.27,0,0,0,.067.082c.309.2.355.55.48.848a1.138,1.138,0,0,1-.227,1.2.414.414,0,0,1-.178.131,2.736,2.736,0,0,0-.6.325.708.708,0,0,0-.017.872,4.079,4.079,0,0,0,.415.462,2.83,2.83,0,0,1,.511.609,3.922,3.922,0,0,0,.327.419,2.145,2.145,0,0,1,.438.754c.027.115.147.2.194.315a2.855,2.855,0,0,1,.086.966c.014.384-.078.758-.082,1.138-.006,1.23,0,2.462-.006,3.694a1.672,1.672,0,0,1-.045.391c-.084.341-.094.693-.167,1.034a11.539,11.539,0,0,1-.255,1.261l0,0a2.279,2.279,0,0,1,.178.682c.021.123.071.235.1.352.065.286.055.582.135.858a2,2,0,0,1,.061.525,1.7,1.7,0,0,1-.088.478,5.282,5.282,0,0,1-.112.735.612.612,0,0,0,.118.507,1.039,1.039,0,0,1,.16.574.487.487,0,0,1-.19.4c-.068.047-.113.127-.18.17a.328.328,0,0,0-.12.413c.122.409.147.842.286,1.243.192.548.16,1.134.325,1.684.059.2-.01.427.086.629a5.08,5.08,0,0,1,.255.82,3.749,3.749,0,0,0,.494,1.019,5.285,5.285,0,0,1,.361.731,2.265,2.265,0,0,1,.213.765h0a.353.353,0,0,1,.1.223c0,.329.1.647.09.979-.023.66.049,1.318.088,1.971a9.637,9.637,0,0,0,.235,1.42c.061.281.167.552.217.837.018.1-.045.184-.035.278.015.142-.094.125-.18.157-.149.055-.235.208-.38.28a.36.36,0,0,1-.159.064.2.2,0,0,0-.207.2c0,.1.1.172.2.2a6.863,6.863,0,0,1,.9.269c.237.108.527.084.717.3a.047.047,0,0,0,.034.006.888.888,0,0,1,.5.125l0,0c.115.031.215.135.35.055.194.172.486.111.68.294a.5.5,0,0,0,.4.109.181.181,0,0,1,.188.073.117.117,0,0,0,.069.055,3.383,3.383,0,0,1,.85.384,6.078,6.078,0,0,1,.9.413c.243.155.49.309.738.457.4.238.748.542,1.146.775a.872.872,0,0,1,.264.225c.155.226.421.3.6.488s.392.349.586.521c.233.2.446.425.672.629a3.405,3.405,0,0,1,.67.733c.065.111.2.151.27.263.121.19.278.352.392.546.076.127.206.2.3.309.241.272.431.58.644.873.16.225.294.474.46.7a3.685,3.685,0,0,0,.417.608c.157.143.08.4-.072.583a3.707,3.707,0,0,0-.329.453,4.908,4.908,0,0,1-.695.957,6.308,6.308,0,0,0-.544.656c-.176.225-.394.394-.566.609-.219.268-.444.531-.662.8a4.807,4.807,0,0,1-.684.7c-.231.182-.427.415-.654.613-.251.217-.482.457-.75.666-.184.147-.374.294-.556.451-.08.069-.141.159-.259.17a.091.091,0,0,0-.062.035c-.169.237-.456.352-.635.56a4.521,4.521,0,0,1-.672.491,1.2,1.2,0,0,1-.5.313.36.36,0,0,0-.188.1c-.227.262-.566.333-.832.529a1.421,1.421,0,0,1-.666.306.893.893,0,0,0-.484.278l0,0a.214.214,0,0,0-.262.045c-.078.086-.2.078-.292.123-.208.1-.429.178-.645.263a.323.323,0,0,1-.1.034,1.989,1.989,0,0,0-.658.247,3.048,3.048,0,0,1-.406.111c-.164.03-.341.018-.45.2-.037.061-.141.043-.2.03a1.517,1.517,0,0,0-.523.08,10.093,10.093,0,0,0-1.209.274c-.263.086-.537.051-.791.143a7.6,7.6,0,0,1-.868.161c-.349.092-.707.092-1.052.178a5.655,5.655,0,0,1-.82.086c-.449.042-.9.081-1.351.128-.118.012-.225-.043-.335-.037-.368.027-.736-.026-1.1.014a1.435,1.435,0,0,1-.229-.018c-.292-.008-.586.045-.874.028a5.575,5.575,0,0,1-.9-.028c-.335-.074-.668-.043-1-.1-.141-.022-.276-.065-.421-.083a3.591,3.591,0,0,0-.95-.078c-.084.012-.177-.055-.266-.086.023-.009.051.019.07-.012l-.068.014-.754-.1c-.022,0-.065,0-.067-.008-.071-.225-.27-.076-.4-.137-.268-.129-.591-.1-.844-.239-.229-.123-.48-.094-.7-.2-.034-.019-.09-.01-.075-.072s-.045-.086-.084-.09c-.124-.014-.3-.028-.354-.086-.124-.142-.363-.014-.433-.221a.091.091,0,0,0-.01-.012c-.113.069-.18-.051-.258-.059a4.167,4.167,0,0,1-.552-.188c-.059-.014-.073-.072-.1-.117s-.056-.078-.112-.074a.7.7,0,0,1-.3-.079l0,0a.165.165,0,0,0,.028-.02c-.1-.07-.151-.247-.263-.233-.192.028-.313-.157-.49-.119,0-.053-.1-.027-.08-.133s-.159-.072-.239-.118a3.439,3.439,0,0,1-.311-.209c-.012-.01-.012-.076-.033-.074-.2.029-.3-.139-.433-.223s-.337-.094-.394-.288c-.008-.03-.053-.072-.078-.069-.111.01-.2-.1-.257-.1-.139.01-.147-.118-.2-.166-.115-.1-.342-.074-.348-.293-.133.055-.161-.092-.247-.126-.053-.02-.119-.037-.088-.139.023-.071-.051-.118-.133-.122-.143-.008-.274-.031-.247-.227,0-.027-.014-.078-.03-.08-.154-.033-.149-.21-.278-.282s-.19-.215-.288-.323-.164-.286-.268-.37a1.976,1.976,0,0,1-.345-.436c-.07-.094-.192-.179-.213-.255a.522.522,0,0,0-.306-.343c-.017-.01-.014-.055-.021-.084a1.468,1.468,0,0,0-.28-.623l0,.006c-.077-.089-.067-.245-.21-.288.051-.159-.173-.245-.108-.409a.407.407,0,0,0-.045-.025l0,0c0-.076.014-.154-.082-.2-.143-.066.059-.1.025-.182-.015-.028.039.074.084.029a.42.42,0,0,1,.172-.5c.082-.039.051-.112.09-.151a1.491,1.491,0,0,0,.225-.284c.086-.162.231-.25.32-.389s.164-.323.26-.466a.806.806,0,0,1,.2-.235c.059-.038.173-.049.11-.172-.012-.027.027-.033.049-.036a.466.466,0,0,0,.343-.335c.009-.019.015-.047.021-.047.233,0,.2-.209.268-.34a.288.288,0,0,1,.077-.094,2.035,2.035,0,0,0,.437-.5c.111-.182.319-.293.366-.515.016-.081.128-.081.178-.139a2.15,2.15,0,0,1,.386-.454c.119-.074.119-.251.278-.26h0c.023.01.064.012.064-.006,0-.161.161-.239.239-.29.121-.078.1-.269.266-.278a.031.031,0,0,1,.014,0l-.016,0a1.988,1.988,0,0,0,.345-.325.5.5,0,0,1,.327-.237c.012,0,.027-.019.033-.033a.941.941,0,0,1,.462-.462c.07-.034.106-.106.153-.159a5.277,5.277,0,0,1,.8-.556.586.586,0,0,0,.106-.141.5.5,0,0,1,.311-.223c.006,0,.016,0,.016-.006.063-.233.378-.215.444-.444.126.039.128-.164.269-.133.049.01.164-.125.192-.129.212-.035.253-.321.482-.315a.124.124,0,0,0,.1-.042c.147-.21.4-.274.582-.444a.514.514,0,0,1,.17-.1,2.84,2.84,0,0,0,.611-.36c.059-.039.111-.1.19-.089.186.018.294-.129.433-.209.025-.014.055-.059.061-.058.258.141.335-.288.578-.178a2.917,2.917,0,0,1,.728-.282c.282-.118.548-.263.84-.36.094-.03.109-.11.028-.178-.1-.088-.216-.166-.324-.247s-.127-.186-.01-.276.194-.278.384-.3c0-.153.147-.2.221-.3a.816.816,0,0,1,.178-.194,6.893,6.893,0,0,0,.9-.8,4.673,4.673,0,0,0,.454-.554c.01-.015.016-.039.029-.043.1-.033.118-.1.137-.206a1.119,1.119,0,0,1,.186-.4,2.95,2.95,0,0,0,.366-.929c.065-.266.176-.521.225-.785a6.914,6.914,0,0,0,.2-.932,2,2,0,0,1,.137-.531,5.27,5.27,0,0,0,.1-.74c.1-.517.195-1.032.327-1.541l0,0a.3.3,0,0,1,.04-.035l-.043,0h0a5.5,5.5,0,0,1,.145-1.164,3.97,3.97,0,0,1,.053,1.349,11.649,11.649,0,0,1-.276,1.171,7.757,7.757,0,0,0-.137,1.29,3.13,3.13,0,0,1-.206.894,5.727,5.727,0,0,0-.157.636c-.045.215-.168.407-.233.621a10.3,10.3,0,0,1-.323,1c-.031.067-.074.122-.1.185a.222.222,0,0,0-.02.239c.108-.2.3-.343.263-.592a.084.084,0,0,1,.031-.057,1.674,1.674,0,0,0,.388-.838c.084-.278.154-.56.244-.836a.721.721,0,0,0,.043-.208,3.429,3.429,0,0,1,.166-.766,2.725,2.725,0,0,0,.123-.6,5.237,5.237,0,0,1,.187-.879c.037-.178.063-.36.088-.539a4.745,4.745,0,0,1,.129-.646.889.889,0,0,0,.022-.194c.014-.346.08-.681.123-1.022s.1-.7.157-1.052a2.271,2.271,0,0,0,.076-.685.126.126,0,0,1,.014-.088c.162-.215.082-.474.139-.7a3.341,3.341,0,0,1,.208-1.04.461.461,0,0,0,.059-.207,8.873,8.873,0,0,1,.217-1.179,2.681,2.681,0,0,1,.127-.568.143.143,0,0,0-.082-.188c-.07-.012-.076.082-.088.147a7.2,7.2,0,0,1-.329,1,2.45,2.45,0,0,0-.16.54c-.034.323-.065.651-.126.968a1.7,1.7,0,0,1-.188.711l0,0a4.539,4.539,0,0,1,.123-1c.033-.167.039-.339.082-.508a3.924,3.924,0,0,0,.133-.621,2.858,2.858,0,0,1,.194-.566.632.632,0,0,0,.031-.174c0-.18-.069-.223-.233-.143a1.252,1.252,0,0,1-.985.035.356.356,0,0,1-.217-.223,6.288,6.288,0,0,1-.288-1.107c-.017-.092.01-.076.1-.147.072-.056.074-.164.074-.262a2.459,2.459,0,0,1,.374-1.418,4.833,4.833,0,0,0,.48-.993,3.555,3.555,0,0,0,.286-1.175.2.2,0,0,1,.059-.124h.041c.012-.016.041-.027.008-.049,0,.016,0,.033-.006.051a.374.374,0,0,0-.045,0,9.059,9.059,0,0,0-.055-2.329,1.014,1.014,0,0,1,.069-.658c.022-.039.035-.088.092-.088a1.619,1.619,0,0,0,.169.625.949.949,0,0,1,.086.286c.014.55,0,1.1,0,1.647,0,.28-.076.586.147.835.074.082.143.168.215.254Z" fill="#050505"/><path d="M239.731,203.606c0-.008.012-.016.012-.022a.163.163,0,0,0-.006-.031.065.065,0,0,0-.015.022.113.113,0,0,0,.008.031m-.127.474a5.829,5.829,0,0,0,.014-1.416c-.016-.159.092-.3.068-.47-.008-.053.057-.053.1-.045a.2.2,0,0,1,.18.149.526.526,0,0,1,.012.176,9.915,9.915,0,0,1,.074,1c-.033.231-.078.46-.109.689-.014.1-.069.061-.116.047s-.127-.024-.162.029,0,.1.055.131.043.077.018.123c-.012.022-.018.064-.061.041a.125.125,0,0,1-.07-.116v-.339" transform="translate(-36.891 -19.753)" fill="#050505"/><path d="M238.338,248.13a.364.364,0,0,0-.016.194,1.362,1.362,0,0,1-.27,1.056,5.542,5.542,0,0,1,.184-1.056c.03-.065-.029-.184.1-.192l0,0" transform="translate(-35.829 -51.21)" fill="#050505"/><path d="M241.677,216.891c-.027.067.006.174-.1.165-.135-.01-.137-.122-.141-.227,0-.076.016-.131.106-.127.129.009.119.111.137.188" transform="translate(-38.142 -29.711)" fill="#050505"/><path d="M239.654,210.517a.57.57,0,0,1-.033-.256c.006-.041.022-.09.078-.065s.1.057.055.106a1.176,1.176,0,0,0-.1.215" transform="translate(-36.9 -25.256)" fill="#050505"/><path d="M240.149,200.076c.01.027.02.039.02.053a.04.04,0,0,1-.018.027c-.025.008-.033-.01-.031-.027s.015-.029.029-.053" transform="translate(-37.244 -18.338)" fill="#050505"/><path d="M241.667,210.012l0,0Z" transform="translate(-38.302 -25.133)" fill="#050505"/><rect width="0.003" height="0.038" transform="translate(201.933 200.216)" fill="#050505"/><path d="M251.032,229.355l.012-.008-.012-.006Z" transform="translate(-44.709 -38.357)" fill="#050505"/><path d="M241.9,192.433l0,0Z" transform="translate(-38.461 -13.108)" fill="#050505"/></g></svg>