<svg xmlns="http://www.w3.org/2000/svg" width="49.46" height="48.72" viewBox="0 0 49.46 48.72"><g transform="translate(0.503 18.645) rotate(-30)"><g transform="translate(0 0)"><path d="M36.205,17.324h0a.57.57,0,0,0,.042-.2h0a.57.57,0,0,0-.042-.2h0a.563.563,0,0,0-.125-.185L19.581.189a.566.566,0,0,0-.8.8L34.314,16.542H.566a.566.566,0,1,0,0,1.133H34.314L18.78,33.227a.566.566,0,1,0,.8.8l16.5-16.519A.563.563,0,0,0,36.205,17.324Z" transform="translate(0 -0.037)" fill="#f58719" stroke="#f58719" stroke-width="0.7"/></g></g></svg>