<svg xmlns="http://www.w3.org/2000/svg" width="18.797" height="19.855" viewBox="0 0 18.797 19.855"><g transform="translate(18.412 0.35) rotate(90)"><g transform="translate(0 0)"><path d="M19.133,9.173h0a.3.3,0,0,0,.022-.108h0a.3.3,0,0,0-.022-.108h0a.3.3,0,0,0-.066-.1L10.348.118a.3.3,0,0,0-.423.423L18.134,8.76H.3a.3.3,0,1,0,0,.6H18.134L9.925,17.577a.3.3,0,1,0,.423.423l8.72-8.73A.3.3,0,0,0,19.133,9.173Z" transform="translate(0 -0.037)" fill="none" stroke="#f58719" stroke-width="0.7"/></g></g></svg>