<svg xmlns="http://www.w3.org/2000/svg" width="37.937" height="35.86" viewBox="0 0 37.937 35.86">
  <g id="Layer_2" data-name="Layer 2" transform="translate(37.587 35.459) rotate(180)">
    <g id="Group_1" data-name="Group 1" transform="translate(0 0)">
      <path id="Path_1" data-name="Path 1" d="M37.194,17.8h0a.586.586,0,0,0,.043-.209h0a.586.586,0,0,0-.043-.209h0a.578.578,0,0,0-.128-.19L20.116.194a.582.582,0,0,0-.822.822L35.251,16.993H.582a.582.582,0,1,0,0,1.164H35.251L19.293,34.133a.582.582,0,1,0,.822.822l16.951-16.97A.578.578,0,0,0,37.194,17.8Z" transform="translate(0 -0.037)" fill="#f9868d" stroke="#f9868d" stroke-width="0.7"/>
    </g>
  </g>
</svg>
